<svg id="Component_70_1" data-name="Component 70 – 1" xmlns="http://www.w3.org/2000/svg" width="128" height="128" viewBox="0 0 128 128">
  <g id="Component_69_2" data-name="Component 69 – 2">
    <g id="Ellipse_5" data-name="Ellipse 5" fill="#fff" stroke="#8b61de" stroke-width="2">
      <circle cx="64" cy="64" r="64" stroke="none"/>
      <circle cx="64" cy="64" r="63" fill="none"/>
    </g>
  </g>
  <path id="stethoscope-solid" d="M45.653,11.462a6.534,6.534,0,0,0-3.165,12.192v11.5c0,5.851-5.126,10.62-11.436,10.62-6.127,0-11.15-4.5-11.426-10.13A16.382,16.382,0,0,0,32.675,19.631V3.762a2.449,2.449,0,0,0-1.971-2.4L24.281.076A2.444,2.444,0,0,0,21.4,2l-.327,1.6a2.444,2.444,0,0,0,1.92,2.88L26.13,7.1V19.5a9.8,9.8,0,1,1-19.6.123V7.112l3.135-.623a2.444,2.444,0,0,0,1.92-2.88l-.317-1.6A2.444,2.444,0,0,0,8.383.086L1.971,1.353A2.46,2.46,0,0,0,0,3.762V19.631A16.363,16.363,0,0,0,13.08,35.642c.265,9.231,8.22,16.665,17.961,16.665,9.9,0,17.971-7.7,17.971-17.155v-11.5a6.534,6.534,0,0,0-3.359-12.192Zm.092,8.169A1.634,1.634,0,1,1,47.378,18,1.639,1.639,0,0,1,45.745,19.631Z" transform="translate(38 37.972)" fill="#8b61de"/>
</svg>
