<svg id="Component_75_1" data-name="Component 75 – 1" xmlns="http://www.w3.org/2000/svg" width="128" height="128" viewBox="0 0 128 128">
  <g id="Component_73_2" data-name="Component 73 – 2">
    <g id="Component_72_2" data-name="Component 72 – 2">
      <g id="Ellipse_5" data-name="Ellipse 5" fill="#fff" stroke="#8b61de" stroke-width="2">
        <circle cx="64" cy="64" r="64" stroke="none"/>
        <circle cx="64" cy="64" r="63" fill="none"/>
      </g>
      <g id="Ellipse_6" data-name="Ellipse 6" fill="#fff" stroke="#8b61de" stroke-width="2">
        <circle cx="64" cy="64" r="64" stroke="none"/>
        <circle cx="64" cy="64" r="63" fill="none"/>
      </g>
    </g>
  </g>
  <path id="Icon_awesome-newspaper" data-name="Icon awesome-newspaper" d="M59.826,4.5H9.538a2.6,2.6,0,0,0-2.6,2.6v.867H2.6a2.6,2.6,0,0,0-2.6,2.6v29.48a6.069,6.069,0,0,0,6.069,6.069H57.225a5.2,5.2,0,0,0,5.2-5.2V7.1A2.6,2.6,0,0,0,59.826,4.5ZM6.069,40.916a.867.867,0,0,1-.867-.867V13.17H6.936V40.049A.867.867,0,0,1,6.069,40.916Zm25.578-1.734H15.173a1.3,1.3,0,0,1-1.3-1.3v-.867a1.3,1.3,0,0,1,1.3-1.3H31.647a1.3,1.3,0,0,1,1.3,1.3v.867A1.3,1.3,0,0,1,31.647,39.182Zm22.543,0H37.717a1.3,1.3,0,0,1-1.3-1.3v-.867a1.3,1.3,0,0,1,1.3-1.3H54.191a1.3,1.3,0,0,1,1.3,1.3v.867A1.3,1.3,0,0,1,54.191,39.182Zm-22.543-10.4H15.173a1.3,1.3,0,0,1-1.3-1.3V26.61a1.3,1.3,0,0,1,1.3-1.3H31.647a1.3,1.3,0,0,1,1.3,1.3v.867A1.3,1.3,0,0,1,31.647,28.777Zm22.543,0H37.717a1.3,1.3,0,0,1-1.3-1.3V26.61a1.3,1.3,0,0,1,1.3-1.3H54.191a1.3,1.3,0,0,1,1.3,1.3v.867A1.3,1.3,0,0,1,54.191,28.777Zm0-10.4H15.173a1.3,1.3,0,0,1-1.3-1.3V12.737a1.3,1.3,0,0,1,1.3-1.3H54.191a1.3,1.3,0,0,1,1.3,1.3v4.335A1.3,1.3,0,0,1,54.191,18.373Z" transform="translate(33 38.5)" fill="#8b61de"/>
</svg>
