<svg id="Component_74_1" data-name="Component 74 – 1" xmlns="http://www.w3.org/2000/svg" width="128" height="128" viewBox="0 0 128 128">
  <g id="Component_70_2" data-name="Component 70 – 2">
    <g id="Component_69_2" data-name="Component 69 – 2">
      <g id="Ellipse_5" data-name="Ellipse 5" fill="#fff" stroke="#8b61de" stroke-width="2">
        <circle cx="64" cy="64" r="64" stroke="none"/>
        <circle cx="64" cy="64" r="63" fill="none"/>
      </g>
    </g>
  </g>
  <path id="Icon_awesome-hospital" data-name="Icon awesome-hospital" d="M46.109,50.637V52.7H0V50.637A1.235,1.235,0,0,1,1.235,49.4H3.293V12.351a2.47,2.47,0,0,1,2.47-2.47h9.057V2.47A2.47,2.47,0,0,1,17.291,0H28.818a2.47,2.47,0,0,1,2.47,2.47V9.88h9.057a2.47,2.47,0,0,1,2.47,2.47V49.4h2.058A1.235,1.235,0,0,1,46.109,50.637ZM31.7,19.761H27.583A1.235,1.235,0,0,0,26.348,21v4.117a1.235,1.235,0,0,0,1.235,1.235H31.7a1.235,1.235,0,0,0,1.235-1.235V21A1.235,1.235,0,0,0,31.7,19.761ZM14.409,26.348h4.117a1.235,1.235,0,0,0,1.235-1.235V21a1.235,1.235,0,0,0-1.235-1.235H14.409A1.235,1.235,0,0,0,13.174,21v4.117A1.235,1.235,0,0,0,14.409,26.348Zm10.7,13.174H21a1.235,1.235,0,0,0-1.235,1.235V49.4h6.587V40.757A1.235,1.235,0,0,0,25.113,39.522Zm6.587-9.88H27.583a1.235,1.235,0,0,0-1.235,1.235v4.117a1.235,1.235,0,0,0,1.235,1.235H31.7a1.235,1.235,0,0,0,1.235-1.235V30.876A1.235,1.235,0,0,0,31.7,29.641ZM19.761,30.876a1.235,1.235,0,0,0-1.235-1.235H14.409a1.235,1.235,0,0,0-1.235,1.235v4.117a1.235,1.235,0,0,0,1.235,1.235h4.117a1.235,1.235,0,0,0,1.235-1.235Zm-1.029-21h2.676v2.676a.618.618,0,0,0,.618.618h2.058a.618.618,0,0,0,.618-.618V9.88h2.676a.618.618,0,0,0,.618-.618V7.2a.618.618,0,0,0-.618-.618H24.7V3.911a.618.618,0,0,0-.618-.618H22.025a.618.618,0,0,0-.618.618V6.587H18.732a.618.618,0,0,0-.618.618V9.263A.618.618,0,0,0,18.732,9.88Z" transform="translate(41 38)" fill="#8b61de"/>
</svg>
