<svg width="165" height="191" viewBox="0 0 165 191" fill="none" xmlns="http://www.w3.org/2000/svg">
<path fill-rule="evenodd" clip-rule="evenodd" d="M41.2499 115.5C82.257 115.5 115.5 82.257 115.5 41.2499C115.5 41.1505 115.5 41.0513 115.5 40.9518V17.2373C115.462 14.6088 115.397 12.0041 115.295 9.43618C114.273 4.0626 109.551 0 103.88 0H61.1196C54.7023 0 49.4999 5.20233 49.4999 11.6197V49.5002H11.6197C5.20233 49.5002 0 54.7025 0 61.1199V103.88C0 109.524 4.02346 114.228 9.35844 115.28C15.9861 115.434 22.2974 115.485 28.0618 115.5H40.2179C40.5658 115.5 40.9097 115.5 41.2499 115.5Z" fill="#03B1A7"/>
<path fill-rule="evenodd" clip-rule="evenodd" d="M124.539 49.5004C124.275 49.5008 124.012 49.5011 123.75 49.5011C82.786 49.5011 49.5699 82.6739 49.5002 123.622V153.38C49.5002 159.798 54.7026 165 61.1199 165H103.88C110.298 165 115.5 159.798 115.5 153.38V115.5H153.38C159.798 115.5 165 110.298 165 103.881V61.1201C165 54.7027 159.798 49.5004 153.38 49.5004H124.539Z" fill="#8B61DE"/>
<path fill-rule="evenodd" clip-rule="evenodd" d="M114.989 50.0054C80.9796 54.0005 54.0003 80.9798 50.0052 114.989C84.0144 110.994 110.994 84.0147 114.989 50.0054Z" fill="#698BC3"/>
<path d="M28.92 173.248V190H25.56V179.104L21.072 190H18.528L14.016 179.104V190H10.656V173.248H14.472L19.8 185.704L25.128 173.248H28.92ZM45.5619 173.248L39.8979 184.168V190H36.5379V184.168L30.8499 173.248H34.6419L38.2419 180.904L41.8179 173.248H45.5619ZM59.0745 173.248C60.8345 173.248 62.3785 173.592 63.7065 174.28C65.0505 174.968 66.0825 175.952 66.8025 177.232C67.5385 178.496 67.9065 179.968 67.9065 181.648C67.9065 183.328 67.5385 184.8 66.8025 186.064C66.0825 187.312 65.0505 188.28 63.7065 188.968C62.3785 189.656 60.8345 190 59.0745 190H53.2185V173.248H59.0745ZM58.9545 187.144C60.7145 187.144 62.0745 186.664 63.0345 185.704C63.9945 184.744 64.4745 183.392 64.4745 181.648C64.4745 179.904 63.9945 178.544 63.0345 177.568C62.0745 176.576 60.7145 176.08 58.9545 176.08H56.5785V187.144H58.9545ZM78.1976 190.168C76.6296 190.168 75.1896 189.8 73.8776 189.064C72.5656 188.328 71.5256 187.312 70.7576 186.016C69.9896 184.704 69.6056 183.224 69.6056 181.576C69.6056 179.944 69.9896 178.48 70.7576 177.184C71.5256 175.872 72.5656 174.848 73.8776 174.112C75.1896 173.376 76.6296 173.008 78.1976 173.008C79.7816 173.008 81.2216 173.376 82.5176 174.112C83.8296 174.848 84.8616 175.872 85.6136 177.184C86.3816 178.48 86.7656 179.944 86.7656 181.576C86.7656 183.224 86.3816 184.704 85.6136 186.016C84.8616 187.312 83.8296 188.328 82.5176 189.064C81.2056 189.8 79.7656 190.168 78.1976 190.168ZM78.1976 187.168C79.2056 187.168 80.0936 186.944 80.8616 186.496C81.6296 186.032 82.2296 185.376 82.6616 184.528C83.0936 183.68 83.3096 182.696 83.3096 181.576C83.3096 180.456 83.0936 179.48 82.6616 178.648C82.2296 177.8 81.6296 177.152 80.8616 176.704C80.0936 176.256 79.2056 176.032 78.1976 176.032C77.1896 176.032 76.2936 176.256 75.5096 176.704C74.7416 177.152 74.1416 177.8 73.7096 178.648C73.2776 179.48 73.0616 180.456 73.0616 181.576C73.0616 182.696 73.2776 183.68 73.7096 184.528C74.1416 185.376 74.7416 186.032 75.5096 186.496C76.2936 186.944 77.1896 187.168 78.1976 187.168ZM88.4494 181.6C88.4494 179.952 88.8174 178.48 89.5534 177.184C90.3054 175.872 91.3214 174.856 92.6014 174.136C93.8974 173.4 95.3454 173.032 96.9454 173.032C98.8174 173.032 100.457 173.512 101.865 174.472C103.273 175.432 104.257 176.76 104.817 178.456H100.953C100.569 177.656 100.025 177.056 99.3214 176.656C98.6334 176.256 97.8334 176.056 96.9214 176.056C95.9454 176.056 95.0734 176.288 94.3054 176.752C93.5534 177.2 92.9614 177.84 92.5294 178.672C92.1134 179.504 91.9054 180.48 91.9054 181.6C91.9054 182.704 92.1134 183.68 92.5294 184.528C92.9614 185.36 93.5534 186.008 94.3054 186.472C95.0734 186.92 95.9454 187.144 96.9214 187.144C97.8334 187.144 98.6334 186.944 99.3214 186.544C100.025 186.128 100.569 185.52 100.953 184.72H104.817C104.257 186.432 103.273 187.768 101.865 188.728C100.473 189.672 98.8334 190.144 96.9454 190.144C95.3454 190.144 93.8974 189.784 92.6014 189.064C91.3214 188.328 90.3054 187.312 89.5534 186.016C88.8174 184.72 88.4494 183.248 88.4494 181.6ZM119.087 173.248V175.96H114.623V190H111.263V175.96H106.799V173.248H119.087ZM129.315 190.168C127.747 190.168 126.307 189.8 124.995 189.064C123.683 188.328 122.643 187.312 121.875 186.016C121.107 184.704 120.723 183.224 120.723 181.576C120.723 179.944 121.107 178.48 121.875 177.184C122.643 175.872 123.683 174.848 124.995 174.112C126.307 173.376 127.747 173.008 129.315 173.008C130.899 173.008 132.339 173.376 133.635 174.112C134.947 174.848 135.979 175.872 136.731 177.184C137.499 178.48 137.883 179.944 137.883 181.576C137.883 183.224 137.499 184.704 136.731 186.016C135.979 187.312 134.947 188.328 133.635 189.064C132.323 189.8 130.883 190.168 129.315 190.168ZM129.315 187.168C130.323 187.168 131.211 186.944 131.979 186.496C132.747 186.032 133.347 185.376 133.779 184.528C134.211 183.68 134.427 182.696 134.427 181.576C134.427 180.456 134.211 179.48 133.779 178.648C133.347 177.8 132.747 177.152 131.979 176.704C131.211 176.256 130.323 176.032 129.315 176.032C128.307 176.032 127.411 176.256 126.627 176.704C125.859 177.152 125.259 177.8 124.827 178.648C124.395 179.48 124.179 180.456 124.179 181.576C124.179 182.696 124.395 183.68 124.827 184.528C125.259 185.376 125.859 186.032 126.627 186.496C127.411 186.944 128.307 187.168 129.315 187.168ZM149.023 190L145.327 183.472H143.743V190H140.383V173.248H146.671C147.967 173.248 149.071 173.48 149.983 173.944C150.895 174.392 151.575 175.008 152.023 175.792C152.487 176.56 152.719 177.424 152.719 178.384C152.719 179.488 152.399 180.488 151.759 181.384C151.119 182.264 150.167 182.872 148.903 183.208L152.911 190H149.023ZM143.743 180.952H146.551C147.463 180.952 148.143 180.736 148.591 180.304C149.039 179.856 149.263 179.24 149.263 178.456C149.263 177.688 149.039 177.096 148.591 176.68C148.143 176.248 147.463 176.032 146.551 176.032H143.743V180.952Z" fill="url(#paint0_linear)"/>
<defs>
<linearGradient id="paint0_linear" x1="104.336" y1="189" x2="36.2461" y2="187.219" gradientUnits="userSpaceOnUse">
<stop stop-color="#03B1A7"/>
<stop offset="1" stop-color="#8B61DE"/>
</linearGradient>
</defs>
</svg>
