<svg id="Component_73_1" data-name="Component 73 – 1" xmlns="http://www.w3.org/2000/svg" width="128" height="128" viewBox="0 0 128 128">
  <g id="Component_72_2" data-name="Component 72 – 2">
    <g id="Ellipse_5" data-name="Ellipse 5" fill="#fff" stroke="#8b61de" stroke-width="2">
      <circle cx="64" cy="64" r="64" stroke="none"/>
      <circle cx="64" cy="64" r="63" fill="none"/>
    </g>
    <g id="Ellipse_6" data-name="Ellipse 6" fill="#fff" stroke="#8b61de" stroke-width="2">
      <circle cx="64" cy="64" r="64" stroke="none"/>
      <circle cx="64" cy="64" r="63" fill="none"/>
    </g>
  </g>
  <path id="pills-solid" d="M12.139,32A12.133,12.133,0,0,0,0,44.139V68.418a12.139,12.139,0,1,0,24.279,0V44.139A12.133,12.133,0,0,0,12.139,32Zm5.2,24.279H6.937V44.139a5.2,5.2,0,1,1,10.405,0ZM32.484,53.06a.89.89,0,0,0-1.333.087A17.241,17.241,0,0,0,55.245,77.241a.882.882,0,0,0,.087-1.333ZM57.391,51A17.28,17.28,0,0,0,35.02,49.277a.883.883,0,0,0-.087,1.333L57.781,73.458a.89.89,0,0,0,1.333-.087A17.267,17.267,0,0,0,57.391,51Z" transform="translate(33 8)" fill="#8b61de"/>
</svg>
