<svg id="Component_72_1" data-name="Component 72 – 1" xmlns="http://www.w3.org/2000/svg" width="128" height="128" viewBox="0 0 128 128">
  <g id="Ellipse_5" data-name="Ellipse 5" fill="#fff" stroke="#8b61de" stroke-width="2">
    <circle cx="64" cy="64" r="64" stroke="none"/>
    <circle cx="64" cy="64" r="63" fill="none"/>
  </g>
  <g id="user-md-solid" transform="translate(41 38)">
    <path id="user-md-solid-2" data-name="user-md-solid" d="M22.692,26.148A13.074,13.074,0,1,0,9.725,13.074,13.02,13.02,0,0,0,22.692,26.148ZM10.536,43.308a2.431,2.431,0,1,0,2.431-2.451A2.436,2.436,0,0,0,10.536,43.308Zm21.882-13.83v5A8.167,8.167,0,0,1,38.9,42.49V46.75a1.636,1.636,0,0,1-1.307,1.6l-3.262.654a.807.807,0,0,1-.952-.643l-.314-1.6a.808.808,0,0,1,.638-.96l1.955-.4V42.49c0-6.414-9.725-6.649-9.725.194v2.727l1.955.4a.828.828,0,0,1,.638.96l-.314,1.6a.822.822,0,0,1-.952.643L24.1,48.588a1.628,1.628,0,0,1-1.4-1.624V42.49a8.175,8.175,0,0,1,6.483-8.008V29.866c-.223.071-.446.112-.669.194a17.39,17.39,0,0,1-11.63,0,11.118,11.118,0,0,0-2.289-.531v8.335a5.673,5.673,0,1,1-3.242,0V29.651A13.659,13.659,0,0,0,0,43.144V47.72A4.563,4.563,0,0,0,4.538,52.3H40.846a4.563,4.563,0,0,0,4.538-4.576V43.144A13.657,13.657,0,0,0,32.417,29.478Z" fill="#8b61de"/>
  </g>
</svg>
